Coordinates
version=1
nRows=54
nColumns=12
inDegrees=yes

Units are S.I. units (second, meters, Newtons, ...)
Angles are in degrees

endheader
time	SC_y	SC_z	SC_x	AC_y	AC_z	AC_x	GH_y	GH_z	GH_yy	EL_x	PS_y
       0.0               -25.0         -2.897           11.2          69.92            3.0         -15.95          5.376          44.32           17.1           58.3          47.42
  0.002633               -25.0         -2.893          11.21          69.92          2.999         -15.95          5.397          44.31           17.1           58.3          47.42
  0.005267               -25.0          -2.89          11.21          69.92          2.999         -15.94          5.419          44.31           17.1          58.31          47.43
    0.0079               -25.0         -2.886          11.22          69.92          2.998         -15.94          5.442           44.3          17.09          58.31          47.43
   0.01053               -25.0         -2.882          11.23          69.91          2.997         -15.93          5.467          44.29          17.09          58.31          47.43
   0.01317               -25.0         -2.878          11.24          69.91          2.996         -15.92          5.494          44.29          17.09          58.31          47.44
    0.0158               -25.0         -2.873          11.25          69.91          2.995         -15.92          5.522          44.28          17.08          58.31          47.44
   0.01843              -24.99         -2.868          11.26          69.91          2.994         -15.91          5.553          44.27          17.08          58.31          47.45
   0.02107              -24.99         -2.863          11.27          69.91          2.993          -15.9          5.585          44.26          17.08          58.32          47.45
    0.0237              -24.99         -2.858          11.29          69.91          2.992         -15.89           5.62          44.25          17.07          58.32          47.46
   0.02633              -24.99         -2.852           11.3           69.9          2.991         -15.88          5.658          44.24          17.07          58.32          47.46
   0.02897              -24.99         -2.845          11.32           69.9          2.989         -15.87          5.698          44.23          17.06          58.32          47.47
    0.0316              -24.99         -2.838          11.33           69.9          2.988         -15.86          5.741          44.21          17.06          58.33          47.48
   0.03423              -24.98         -2.831          11.35           69.9          2.986         -15.85          5.788           44.2          17.05          58.33          47.48
   0.03687              -24.98         -2.823          11.37          69.89          2.985         -15.84          5.839          44.19          17.05          58.33          47.49
    0.0395              -24.98         -2.814          11.39          69.89          2.983         -15.83          5.894          44.17          17.04          58.34           47.5
   0.04213              -24.98         -2.805          11.41          69.89          2.981         -15.81          5.954          44.15          17.03          58.34          47.51
   0.04477              -24.97         -2.794          11.43          69.88          2.979          -15.8           6.02          44.13          17.02          58.35          47.52
    0.0474              -24.97         -2.783          11.46          69.88          2.976         -15.78          6.091          44.11          17.01          58.35          47.53
   0.05003              -24.96          -2.77          11.48          69.87          2.974         -15.76          6.169          44.09          17.01          58.36          47.54
   0.05267              -24.96         -2.757          11.52          69.87          2.971         -15.74          6.255          44.07          16.99          58.36          47.55
    0.0553              -24.96         -2.742          11.55          69.86          2.968         -15.72          6.349          44.04          16.98          58.37          47.57
   0.05794              -24.95         -2.725          11.59          69.86          2.965         -15.69          6.453          44.01          16.97          58.38          47.58
   0.06057              -24.95         -2.707          11.63          69.85          2.961         -15.66          6.569          43.97          16.96          58.38           47.6
    0.0632              -24.94         -2.686          11.68          69.84          2.956         -15.63          6.697          43.94          16.94          58.39          47.62
   0.06584              -24.93         -2.663          11.73          69.83          2.952          -15.6          6.841           43.9          16.92           58.4          47.64
   0.06847              -24.92         -2.638          11.79          69.82          2.946         -15.56          7.001          43.85           16.9          58.41          47.66
    0.0711              -24.92         -2.609          11.85          69.81          2.941         -15.51          7.182           43.8          16.88          58.42          47.69
   0.07374              -24.91         -2.577          11.92           69.8          2.934         -15.46          7.386          43.74          16.86          58.44          47.72
   0.07637              -24.89          -2.54          12.01          69.79          2.926         -15.41          7.617          43.67          16.83          58.45          47.76
     0.079              -24.88         -2.498           12.1          69.77          2.917         -15.34          7.882          43.59           16.8          58.47           47.8
   0.08164              -24.87         -2.449          12.21          69.75          2.907         -15.27          8.185          43.51          16.76          58.49          47.84
   0.08427              -24.85         -2.394          12.34          69.73          2.896         -15.18          8.535          43.41          16.72          58.52           47.9
    0.0869              -24.83         -2.329          12.49          69.71          2.882         -15.09          8.942          43.29          16.67          58.54          47.96
   0.08954              -24.81         -2.253          12.66          69.68          2.867         -14.97          9.418          43.15          16.61          58.58          48.03
   0.09217              -24.78         -2.164          12.86          69.65          2.848         -14.83           9.98          42.99          16.54          58.61          48.11
    0.0948              -24.75         -2.058           13.1          69.61          2.826         -14.67          10.65          42.79          16.46          58.66          48.21
   0.09744              -24.71          -1.93          13.39          69.56            2.8         -14.48          11.45          42.56          16.37          58.71          48.33
    0.1001              -24.66         -1.776          13.74          69.51          2.768         -14.24          12.41          42.28          16.25          58.78          48.48
    0.1027              -24.61         -1.588          14.16          69.44          2.729         -13.95           13.6          41.94           16.1          58.86          48.66
    0.1053              -24.53         -1.356          14.69          69.35          2.681          -13.6          15.05          41.52          15.93          58.96          48.88
     0.108              -24.45         -1.067          15.35          69.24          2.621         -13.16          16.87          40.99          15.71          59.08          49.15
    0.1106              -24.34        -0.7018          16.17          69.11          2.546          -12.6          19.16          40.32          15.43          59.23          49.49
    0.1132              -24.19        -0.2381          17.22          68.94           2.45         -11.89          22.08          39.48          15.08          59.43          49.93
    0.1159              -24.01         0.3553          18.57          68.72          2.327         -10.99          25.81           38.4          14.62          59.68          50.49
    0.1185              -23.78          1.117          20.29          68.44          2.169         -9.823          30.59          37.01          14.04           60.0          51.21
    0.1211              -23.49           2.09           22.5          68.08          1.968         -8.337           36.7          35.24           13.3          60.42          52.13
    0.1238              -23.11          3.313          25.27          67.63          1.714         -6.469          44.39          33.02          12.37          60.94          53.29
    0.1264              -22.66          4.803          28.65          67.08          1.406         -4.193          53.75           30.3          11.24          61.57           54.7
     0.129              -22.14          6.531          32.56          66.44          1.048         -1.554           64.6          27.16           9.92           62.3          56.33
    0.1317              -21.57          8.402           36.8          65.75         0.6608          1.303          76.36          23.75          8.495           63.1           58.1
    0.1343               -21.0          10.27          41.04          65.06         0.2735           4.16          88.11          20.35           7.07          63.89          59.87
    0.1369              -20.47           12.0          44.95          64.43       -0.08422          6.798          98.96           17.2          5.753          64.62           61.5
    0.1396              -20.02          13.49          48.33          63.88        -0.3928          9.075          108.3          14.49          4.618          65.25          62.91
